# xmcd
#
# Track frame offsets:
#	150
#	12930
#	29534
#	44918
#	55470
#	67382
#	79173
#	95575
#	107303
#	119967
#	134868
#	148902
#	163531
#	177383
#
# Disc length: 2543 seconds
#
# Revision: 0
# Processed by: cddbd v1.5.2PL0 Copyright (c) Steve Scherf et al.
# Submitted via: EasyCDDAExtractor 15.3.0.1
#
DISCID=e109ed0e
DTITLE=Mojo Blues Band - - And The Rockin' Boogie Flu
DYEAR=1988
DGENRE=Blues
TTITLE0=Viola
TTITLE1=Blue Job (Instrumental)
TTITLE2=Sea Cruise
TTITLE3=Feelin' Shakey
TTITLE4=Drinkin' Wine Spo Dee O Dee
TTITLE5=Big Ten Inch
TTITLE6=One For The Road
TTITLE7=Rockin' Pneumonia And The Boog
TTITLE8=Hot Bricks
TTITLE9=Gotta Go Home
TTITLE10=7th Floor Boogie
TTITLE11=Doc's House Party
TTITLE12=Choo Choo Ch' Boogie
TTITLE13=Ooo Eee Baby
EXTD=
EXTT0=
EXTT1=
EXTT2=
EXTT3=
EXTT4=
EXTT5=
EXTT6=
EXTT7=
EXTT8=
EXTT9=
EXTT10=
EXTT11=
EXTT12=
EXTT13=
PLAYORDER=
